<?xml version="1.0" encoding="UTF-8" standalone="no"?>
<!-- Created with Inkscape (http://www.inkscape.org/) -->

<svg
   width="244.64844mm"
   height="49.674133mm"
   viewBox="0 0 244.64844 49.674133"
   version="1.1"
   id="svg1"
   xml:space="preserve"
   inkscape:version="1.4.2 (ebf0e940, 2025-05-08)"
   sodipodi:docname="logotype.svg"
   xmlns:inkscape="http://www.inkscape.org/namespaces/inkscape"
   xmlns:sodipodi="http://sodipodi.sourceforge.net/DTD/sodipodi-0.dtd"
   xmlns="http://www.w3.org/2000/svg"
   xmlns:svg="http://www.w3.org/2000/svg"><sodipodi:namedview
     id="namedview1"
     pagecolor="#ffffff"
     bordercolor="#000000"
     borderopacity="0.25"
     inkscape:showpageshadow="2"
     inkscape:pageopacity="0.0"
     inkscape:pagecheckerboard="0"
     inkscape:deskcolor="#d1d1d1"
     inkscape:document-units="mm"
     inkscape:zoom="1"
     inkscape:cx="672"
     inkscape:cy="175"
     inkscape:window-width="2560"
     inkscape:window-height="1027"
     inkscape:window-x="1512"
     inkscape:window-y="25"
     inkscape:window-maximized="1"
     inkscape:current-layer="g1" /><defs
     id="defs1" /><g
     inkscape:label="Layer 1"
     inkscape:groupmode="layer"
     id="layer1"
     transform="translate(72.515842,-191.7697)"><g
       style="display:block"
       id="g1"
       transform="matrix(0.13229167,0,0,0.13229167,-85.725003,81.491664)"><path
         fill="#000000"
         d="m 1371.8,859.309 c 22.39,-0.897 45.3,0.186 67.73,-0.267 27.63,-0.558 54.98,5.196 77.76,21.526 22.23,16.13 37.14,40.422 41.46,67.54 4.06,25.364 -0.02,47.961 -14.96,68.862 8.11,3.86 16.09,7.75 23.72,12.48 62.47,38.65 57.79,134.37 -9.94,164.72 -7.95,3.56 -16.32,6.11 -24.9,7.59 -14.52,2.54 -67.74,4.75 -80.67,-0.63 -9.94,-4.22 -17.74,-12.3 -21.6,-22.39 -3.8,-9.99 -3.2,-23.3 1.46,-32.95 10.93,-22.67 36.19,-22.69 57.8,-21.91 19.76,0.71 52.97,-1.58 40.15,-30.49 -3.46,-7.8 -11.04,-11.3 -18.63,-13.84 l -1.41,-0.46 c -22.14,-5.56 -48.31,2.58 -64.13,-16.95 -7.19,-8.86 -10.78,-20.84 -9.69,-32.13 1.92,-20.76 18.28,-26.95 32.82,-37.619 14.55,-10.681 11.54,-33.791 0.15,-45.383 -12.13,-12.342 -37.63,-9.038 -53.82,-8.678 l 0.02,159.43 0.04,48.27 c 0,7.94 0.5,18.18 -0.47,25.87 -2.04,16.11 -17.05,29.15 -32.14,32.07 -11.36,2.3 -23.17,-0.24 -32.58,-7.01 -21.89,-15.82 -16.78,-50.12 -16.79,-74.58 v -83 l 0.02,-90.141 c -0.01,-17.565 -0.32,-34.792 0.74,-52.334 1.33,-22.172 16.57,-34.656 37.86,-37.596 z"
         id="path2" /><path
         fill="#000000"
         d="m 210.596,859.375 c 37.065,-4.358 81.157,7.313 110.565,30.517 17.81,14.054 20.422,44.912 3.534,60.674 -35.328,32.469 -66.11,-16.56 -103.006,-15.004 -9.165,-0.157 -19.94,3.575 -24.903,12.226 -15.947,27.796 17.298,39.786 36.852,44.099 30.785,6.792 62.522,13.803 85.965,34.803 39.105,35.03 35.427,108.01 0.325,144.45 -26.215,27.6 -59.049,36.61 -96.182,37.79 -39.757,-0.99 -76.536,-12.41 -108.567,-37.6 -9.303,-7.32 -14.741,-17.64 -15.2903,-29.66 -0.4853,-10.86 3.4703,-21.45 10.9563,-29.33 5.282,-5.55 12.097,-9.41 19.577,-11.07 32.541,-7.37 59.487,32.71 94.78,28.31 11.847,-1.48 22.881,-0.61 32.158,-11.07 4.621,-5.2 7.899,-14.02 7.202,-21.07 -7.479,-30.31 -53.317,-30.79 -77.649,-40.16 -22.974,-7.69 -44.463,-18.47 -59.754,-38.07 -25.46,-32.629 -21.324,-88.122 4.029,-119.751 19.868,-24.788 48.493,-36.467 79.408,-40.084 z"
         id="path3" /><path
         fill="#000000"
         d="m 530.998,859.126 c 35.621,-3.151 53.455,23.902 69.547,51.569 36.42,63.319 64.253,131.985 88.076,200.945 10.144,29.36 28.131,70.3 -9.648,89.04 -10.431,5.05 -22.472,5.62 -33.328,1.56 -9.006,-3.45 -16.495,-9.98 -21.129,-18.44 -5.41,-10.08 -20.701,-59.65 -25.543,-74.64 -15.295,-47.32 -28.996,-81.02 -50.557,-125.751 -2.061,-4.041 -4.385,-8.155 -6.564,-12.153 -24.254,42.754 -43.559,97.494 -57.755,144.554 -5.497,18.22 -11.357,48.73 -19.342,64.81 -5.208,10.48 -13.378,18.54 -24.705,21.98 -11.464,3.48 -22.842,3.41 -33.501,-2.55 -9.889,-5.53 -17.179,-15.4 -19.975,-26.34 -1.344,-5.25 -1.497,-10.45 -0.811,-15.82 6.686,-52.37 76.497,-219.121 104.768,-266.96 9.6,-16.245 22.03,-27.072 40.467,-31.804 z"
         id="path4" /><path
         fill="#000000"
         d="m 1812.79,859.126 c 2.67,-0.206 5.35,-0.348 8.03,-0.426 10.92,-0.25 21.01,4.258 28.9,11.699 10.78,9.971 11.66,23.114 11.68,36.863 0.02,18.868 -0.04,37.773 -0.05,56.659 l 0.01,160.019 c 16.69,-0.17 57.13,-3.03 69.5,5.92 29.92,21.63 22.16,66.65 -16.04,73.92 -31.88,1.43 -66.38,0.23 -98.38,-0.16 -14.37,0.2 -31.95,-13.16 -34.8,-27.42 -4.19,-21.01 -2.52,-50.71 -2.53,-72.27 l 0.02,-93.6 0.04,-70.397 c -0.01,-33.457 -7.51,-69.721 33.62,-80.807 z"
         id="path5" /><path
         fill="#000000"
         d="m 1681.4,859.264 c 9.88,-0.92 16.26,-1.109 25.93,2.965 7.12,2.564 19.25,13.609 21.05,21.419 4.46,19.319 2.74,47.36 2.71,66.813 l 0.03,89.389 0.02,80.02 c -0.01,15.14 0.15,30.16 -0.34,45.3 -0.69,21.24 -11.94,32.74 -31.6,39.05 -9.17,1.63 -18.61,0.43 -27.07,-3.46 -29.42,-13.62 -22.97,-52.95 -22.97,-80.26 l 0.02,-82.11 -0.04,-89.188 c 0,-16.397 0.01,-32.733 0.29,-49.129 0.38,-21.946 11.37,-33.874 31.97,-40.809 z"
         id="path6" /><path
         fill="#fe8000"
         d="m 1186.21,907.044 c 9.62,4.203 63.36,31.577 68.61,31.978 25.69,47.198 40.82,110.298 47.1,163.228 2.19,20.79 3.17,40.74 3.45,61.86 0.46,35.39 -36.4,54.96 -66.65,39.61 -31.42,-15.95 -23.63,-53.79 -28.33,-83.37 -4.03,-25.32 -9.92,-46.57 -17.71,-71.3 -10.99,-30.53 -18.88,-52.16 -35.37,-81.114 9.53,-20.351 19.16,-40.648 28.9,-60.892 z"
         id="path7" /><path
         fill="#fe381c"
         d="m 1192.68,1049.05 c 8.02,2.67 20.06,8.86 27.84,12.75 l 50.57,25.5 c 7.92,4 22.83,11.95 30.83,14.95 2.19,20.79 3.17,40.74 3.45,61.86 0.46,35.39 -36.4,54.96 -66.65,39.61 -31.42,-15.95 -23.63,-53.79 -28.33,-83.37 -4.03,-25.32 -9.92,-46.57 -17.71,-71.3 z"
         id="path8" /><path
         fill="#71146f"
         d="m 766.844,973.504 c 28.714,14.719 60.935,29.696 88.697,44.946 -14.84,37.56 -26.701,76.12 -29.892,116.63 -3.458,21.26 3.465,44.37 -16.918,62.62 -9.35,8.37 -22.214,12.24 -34.659,11.23 -12.703,-1.05 -24.411,-7.29 -32.356,-17.25 -4.099,-5.11 -6.94,-11.11 -8.296,-17.52 -3.389,-16.07 1.663,-65.8 3.492,-83.04 6.327,-44.62 13.833,-75.5 29.932,-117.616 z"
         id="path9" /><path
         fill="#b41166"
         d="m 736.912,1091.12 c 29.367,13.41 58.003,30.08 88.737,43.96 -3.458,21.26 3.465,44.37 -16.918,62.62 -9.35,8.37 -22.214,12.24 -34.659,11.23 -12.703,-1.05 -24.411,-7.29 -32.356,-17.25 -4.099,-5.11 -6.94,-11.11 -8.296,-17.52 -3.389,-16.07 1.663,-65.8 3.492,-83.04 z"
         id="path10" /><path
         fill="#33267f"
         d="m 907.964,906.172 c 19.161,9.045 40.184,21.448 58.931,29.385 18.157,31.934 33.775,76.043 51.955,107.853 -2.27,9.7 -16.25,34.25 -20.905,46.13 -9.563,-5.33 -69.771,-36.08 -77.033,-37.38 -12.01,-24.19 -28.549,-63.403 -41.338,-85.106 7.654,-18.902 19.049,-42.719 28.39,-60.882 z"
         id="path11" /><path
         fill="#577ab8"
         d="m 832.031,868.387 75.933,37.785 c -9.341,18.163 -20.736,41.98 -28.39,60.882 -8.556,17.045 -15.795,35.046 -24.033,51.396 -27.762,-15.25 -59.983,-30.227 -88.697,-44.946 15.157,-37.362 36.634,-76.466 65.187,-105.117 z"
         id="path12" /><path
         fill="#005497"
         d="m 1051.31,975.417 c 22.43,13.246 45.87,24.222 69.14,35.863 4.1,2.06 9.01,4.33 12.84,6.8 -16.75,36.41 -35.61,76.42 -53.37,112.23 -27.49,-13.25 -54.82,-26.84 -81.975,-40.77 4.655,-11.88 18.635,-36.43 20.905,-46.13 11.03,-22.3 21.76,-45.487 32.46,-67.993 z"
         id="path13" /><path
         fill="#009ed4"
         d="m 1103.44,865.937 c 11.18,4.406 24.97,11.771 36,17.263 15.27,7.602 32.02,15.484 46.77,23.844 -9.74,20.244 -19.37,40.541 -28.9,60.892 l -24.02,50.144 c -3.83,-2.47 -8.74,-4.74 -12.84,-6.8 -23.27,-11.641 -46.71,-22.617 -69.14,-35.863 17.07,-36.64 34.45,-73.135 52.13,-109.48 z"
         id="path14" /><path
         fill="#71146f"
         d="m 920.912,1052.16 c 7.262,1.3 67.47,32.05 77.033,37.38 27.155,13.93 54.485,27.52 81.975,40.77 -9.79,20.89 -19.51,52.16 -40.36,61.91 -11.61,5.44 -24.93,5.93 -36.9,1.36 -23.851,-8.98 -33.759,-40.48 -44.214,-62.43 z"
         id="path15" /><path
         fill="#f59d24"
         d="m 1103.44,865.937 c 6.85,-13.056 16.74,-26.662 31.49,-30.351 51.32,-12.84 102.17,66.772 119.89,103.436 -5.25,-0.401 -58.99,-27.775 -68.61,-31.978 -14.75,-8.36 -31.5,-16.242 -46.77,-23.844 -11.03,-5.492 -24.82,-12.857 -36,-17.263 z"
         id="path16" /><path
         fill="#fec201"
         d="m 832.031,868.387 c 14.234,-14.988 34.363,-33.781 56.308,-34.751 12.612,-0.558 24.737,5.026 33.643,13.767 12.127,11.902 38.48,70.105 44.913,88.154 -18.747,-7.937 -39.77,-20.34 -58.931,-29.385 z"
         id="path17" /><path
         fill="#000000"
         d="m 532.42,1060.47 c 22.18,-4.74 44.001,9.41 48.713,31.6 4.712,22.18 -9.473,43.98 -31.667,48.66 -22.148,4.67 -43.894,-9.48 -48.596,-31.62 -4.702,-22.14 9.416,-43.91 31.55,-48.64 z"
         id="path18" /></g></g></svg>
