<?xml version="1.0" encoding="UTF-8" standalone="no"?>
<!-- Created with Inkscape (http://www.inkscape.org/) -->

<svg
   width="185.21315mm"
   height="121.62553mm"
   viewBox="0 0 185.21315 121.62553"
   version="1.1"
   id="svg1"
   xml:space="preserve"
   inkscape:version="1.4.2 (ebf0e940, 2025-05-08)"
   sodipodi:docname="isotype.svg"
   xmlns:inkscape="http://www.inkscape.org/namespaces/inkscape"
   xmlns:sodipodi="http://sodipodi.sourceforge.net/DTD/sodipodi-0.dtd"
   xmlns="http://www.w3.org/2000/svg"
   xmlns:svg="http://www.w3.org/2000/svg"><sodipodi:namedview
     id="namedview1"
     pagecolor="#ffffff"
     bordercolor="#000000"
     borderopacity="0.25"
     inkscape:showpageshadow="2"
     inkscape:pageopacity="0.0"
     inkscape:pagecheckerboard="0"
     inkscape:deskcolor="#d1d1d1"
     inkscape:document-units="mm"
     showgrid="false"
     inkscape:zoom="0.73940797"
     inkscape:cx="375.97647"
     inkscape:cy="315.11697"
     inkscape:window-width="2560"
     inkscape:window-height="1027"
     inkscape:window-x="1512"
     inkscape:window-y="25"
     inkscape:window-maximized="1"
     inkscape:current-layer="g1" /><defs
     id="defs1" /><g
     inkscape:label="Layer 1"
     inkscape:groupmode="layer"
     id="layer1"
     transform="translate(-5.4106683,-65.200302)"><g
       style="display:block"
       id="g1"
       transform="matrix(0.13229167,0,0,0.13229167,-37.455576,-9.3931267)"><path
         fill="#e97a01"
         d="m 1429.46,748.967 c 8.75,2.923 24.85,12.392 33.68,16.778 l 79.89,39.453 c 14.58,7.34 39.84,20.827 54.72,26.905 8.41,14.07 19.53,40.053 26.12,55.28 45.23,106.855 75.31,219.507 89.36,334.687 5.35,37.53 8.03,80.6 10.11,118.3 0.73,13.1 1.28,35.06 -0.26,47.67 -1.49,12.42 -5.1,24.48 -10.68,35.66 -12.44,25.34 -34.5,44.65 -61.25,53.64 -29.34,9.47 -61.23,7.03 -88.79,-6.79 -23.98,-12.23 -42.5,-33.03 -51.87,-58.26 -8.93,-23.33 -8.45,-56.17 -10.27,-81.79 -1.5,-18.65 -3.56,-37.25 -6.19,-55.78 -9.71,-68.13 -22.23,-112.61 -42.88,-176.65 -24.47,-70.17 -54.57,-138.249 -90,-203.57 5.04,-12.581 14.59,-31.189 20.55,-43.837 16.12,-33.803 32.04,-67.703 47.76,-101.696 z"
         id="path2" /><path
         fill="#ea4822"
         d="m 1451.15,1098.07 c 11.93,0.75 186.19,88.55 209.52,99.12 8.71,3.95 42.4,21.97 52.56,24.88 5.35,37.53 8.03,80.6 10.11,118.3 0.73,13.1 1.28,35.06 -0.26,47.67 -1.49,12.42 -5.1,24.48 -10.68,35.66 -12.44,25.34 -34.5,44.65 -61.25,53.64 -29.34,9.47 -61.23,7.03 -88.79,-6.79 -23.98,-12.23 -42.5,-33.03 -51.87,-58.26 -8.93,-23.33 -8.45,-56.17 -10.27,-81.79 -1.5,-18.65 -3.56,-37.25 -6.19,-55.78 -9.71,-68.13 -22.23,-112.61 -42.88,-176.65 z"
         id="path3" /><path
         fill="#5f1d64"
         d="m 415.05,909.973 c 17.308,7.507 41.607,21.89 59.813,30.853 32.728,16.309 65.33,32.87 97.803,49.681 15.8,8.067 39.118,19.033 54.111,27.693 -38.038,91.7 -66.403,185.98 -76.105,285.2 -3.075,27.29 -3.155,58.3 -6.415,83.54 -3.595,29.13 -18.784,55.59 -42.131,73.38 -49.282,37.77 -120.416,27.68 -157.012,-21.73 -24.378,-32.92 -21.585,-60.93 -20.247,-99.55 1.686,-48.68 6.946,-95.01 13.714,-142.9 13.953,-98.1 39.626,-194.18 76.469,-286.167 z"
         id="path4" /><path
         fill="#90215c"
         d="m 338.581,1196.14 156.495,79.5 c 12.565,6.32 43.931,23.75 55.596,27.76 -3.075,27.29 -3.155,58.3 -6.415,83.54 -3.595,29.13 -18.784,55.59 -42.131,73.38 -49.282,37.77 -120.416,27.68 -157.012,-21.73 -24.378,-32.92 -21.585,-60.93 -20.247,-99.55 1.686,-48.68 6.946,-95.01 13.714,-142.9 z"
         id="path5" /><path
         fill="#2f246b"
         d="m 686.474,893.126 c 23.411,-47.274 46.452,-98.103 69.349,-145.996 48.098,23.938 95.91,49.439 144.035,73.544 3.83,4.905 22.097,45.093 26.354,54.066 22.145,47.782 44.604,95.418 67.374,142.91 7.954,16.75 21.904,49.15 30.654,63.94 -17.86,36.89 -35.35,73.96 -52.461,111.2 -13.16,-8.4 -29.936,-16.13 -43.924,-23.04 l -65.627,-32.53 c -22.955,-11.34 -45.736,-24.17 -68.775,-35.42 -2.894,-1.41 -4.693,-1.48 -7.827,-1.48 -33.76,-67.77 -66.528,-138.755 -99.152,-207.194 z"
         id="path6" /><path
         fill="#6276b0"
         d="m 570.726,651.557 c 61.932,31.404 123.633,63.263 185.097,95.573 -22.897,47.893 -45.938,98.722 -69.349,145.996 -20.4,40.807 -41.613,83.194 -59.697,125.074 -14.993,-8.66 -38.311,-19.626 -54.111,-27.693 -32.473,-16.811 -65.075,-33.372 -97.803,-49.681 -18.206,-8.963 -42.505,-23.346 -59.813,-30.853 30.607,-79.06 78.499,-163.736 131.487,-229.927 7.219,-9.017 16.341,-20.405 24.189,-28.489 z"
         id="path7" /><path
         fill="#055290"
         d="m 1102.24,916.86 c 20.67,11.619 43.14,22.722 64.54,33.032 45.37,21.86 89.82,46.099 134.94,68.318 -13.36,29.47 -28.28,59.08 -42.36,88.32 -29.76,61.82 -58.71,124.76 -88.85,186.35 -22.01,-10.75 -43.67,-22.52 -65.61,-33.58 l -133.121,-66.51 c 17.111,-37.24 34.601,-74.31 52.461,-111.2 26.53,-54.37 51.49,-110.308 78,-164.73 z"
         id="path8" /><path
         fill="#0c9dcf"
         d="m 1229.13,647.658 c 18.96,8.838 38.53,19.395 57.28,28.881 l 100.17,50.521 c 13.67,6.942 29.21,15.469 42.88,21.907 -15.72,33.993 -31.64,67.893 -47.76,101.696 -5.96,12.648 -15.51,31.256 -20.55,43.837 -19.54,41.369 -39.34,82.606 -59.43,123.71 -45.12,-22.219 -89.57,-46.458 -134.94,-68.318 -21.4,-10.31 -43.87,-21.413 -64.54,-33.032 z"
         id="path9" /><path
         fill="#5f1d64"
         d="m 785.626,1100.32 c 3.134,0 4.933,0.07 7.827,1.48 23.039,11.25 45.82,24.08 68.775,35.42 l 65.627,32.53 c 13.988,6.91 30.764,14.64 43.924,23.04 l 133.121,66.51 c 21.94,11.06 43.6,22.83 65.61,33.58 -10.57,21.76 -20.29,44.23 -30.99,65.91 -10.56,21.7 -18.43,44.26 -36.41,61.25 -32.73,30.93 -75.88,40.03 -118.186,24.36 -45.32,-16.79 -57.1,-46.64 -76.34,-86.67 l -31.201,-65.44 z"
         id="path10" /><path
         fill="#eeab23"
         d="m 1229.13,647.658 c 30.84,-63.689 88.91,-107.17 157.97,-70.236 86.13,46.059 171.2,168.565 210.65,254.681 -14.88,-6.078 -40.14,-19.565 -54.72,-26.905 l -79.89,-39.453 c -8.83,-4.386 -24.93,-13.855 -33.68,-16.778 -13.67,-6.438 -29.21,-14.965 -42.88,-21.907 l -100.17,-50.521 c -18.75,-9.486 -38.32,-20.043 -57.28,-28.881 z"
         id="path11" /><path
         fill="#eeab23"
         d="m 570.726,651.557 c 53.192,-60.186 136.578,-126.307 211.797,-57.807 16.317,14.86 26.623,31.651 36.113,51.517 13.457,28.169 26.278,56.65 39.641,84.871 l 27.212,57.212 c 3.565,7.545 12.674,25.847 14.369,33.324 C 851.733,796.569 803.921,771.068 755.823,747.13 694.359,714.82 632.658,682.961 570.726,651.557 Z"
         id="path12" /></g></g></svg>
